<mxfile host="app.diagrams.net" modified="2023-12-18T23:57:12.646Z" agent="Mozilla/5.0 (Macintosh; Intel Mac OS X 10_15_7) AppleWebKit/537.36 (KHTML, like Gecko) Chrome/120.0.0.0 Safari/537.36" etag="c0bW4bUu-NDmMpfdlbam" version="22.1.11" type="github">
  <diagram name="Page-1" id="jt3PBPhwUnPafhOXya_J">
    <mxGraphModel dx="1468" dy="938" grid="1" gridSize="10" guides="1" tooltips="1" connect="1" arrows="1" fold="1" page="1" pageScale="1" pageWidth="850" pageHeight="1100" math="0" shadow="0">
      <root>
        <mxCell id="0" />
        <mxCell id="1" parent="0" />
        <mxCell id="L3UYxXxdt7HCs2LZCHzP-1" value="&lt;p style=&quot;line-height: 500%;&quot;&gt;&lt;font style=&quot;font-size: 13px;&quot; face=&quot;Georgia&quot;&gt;Virtual Machine&lt;/font&gt;&lt;/p&gt;" style="rounded=1;whiteSpace=wrap;html=1;align=center;spacingTop=-70;fillColor=#b0e3e6;strokeColor=none;" parent="1" vertex="1">
          <mxGeometry x="100" y="190" width="120" height="110" as="geometry" />
        </mxCell>
        <mxCell id="L3UYxXxdt7HCs2LZCHzP-2" value="" style="shape=image;verticalLabelPosition=bottom;labelBackgroundColor=default;verticalAlign=top;aspect=fixed;imageAspect=0;image=https://static-00.iconduck.com/assets.00/virtual-machines-icon-512x464-nlf7gddb.png;" parent="1" vertex="1">
          <mxGeometry x="124.69" y="229" width="70.62" height="64" as="geometry" />
        </mxCell>
        <mxCell id="L3UYxXxdt7HCs2LZCHzP-8" style="edgeStyle=orthogonalEdgeStyle;rounded=0;orthogonalLoop=1;jettySize=auto;html=1;fontSize=12;horizontal=1;strokeWidth=2;entryX=0;entryY=0.5;entryDx=0;entryDy=0;" parent="1" source="L3UYxXxdt7HCs2LZCHzP-3" target="L3UYxXxdt7HCs2LZCHzP-7" edge="1">
          <mxGeometry relative="1" as="geometry">
            <mxPoint x="270" y="375" as="targetPoint" />
          </mxGeometry>
        </mxCell>
        <mxCell id="L3UYxXxdt7HCs2LZCHzP-3" value="&lt;p style=&quot;line-height: 500%;&quot;&gt;&lt;font face=&quot;Georgia&quot;&gt;&lt;span style=&quot;font-size: 13px;&quot;&gt;Cosmos DB&lt;/span&gt;&lt;/font&gt;&lt;/p&gt;" style="rounded=1;whiteSpace=wrap;html=1;align=center;spacingTop=-70;fillColor=#b0e3e6;strokeColor=none;" parent="1" vertex="1">
          <mxGeometry x="100" y="320" width="120" height="110" as="geometry" />
        </mxCell>
        <mxCell id="L3UYxXxdt7HCs2LZCHzP-4" value="" style="shape=image;verticalLabelPosition=bottom;labelBackgroundColor=default;verticalAlign=top;aspect=fixed;imageAspect=0;image=https://devblogs.microsoft.com/cosmosdb/wp-content/uploads/sites/52/2019/10/FeaturedDefault.png;" parent="1" vertex="1">
          <mxGeometry x="104" y="357" width="112" height="70" as="geometry" />
        </mxCell>
        <mxCell id="L3UYxXxdt7HCs2LZCHzP-9" style="edgeStyle=orthogonalEdgeStyle;rounded=0;orthogonalLoop=1;jettySize=auto;html=1;fontSize=12;horizontal=1;strokeWidth=2;entryX=0.011;entryY=0.849;entryDx=0;entryDy=0;entryPerimeter=0;" parent="1" source="L3UYxXxdt7HCs2LZCHzP-5" target="L3UYxXxdt7HCs2LZCHzP-7" edge="1">
          <mxGeometry relative="1" as="geometry">
            <mxPoint x="270" y="505" as="targetPoint" />
          </mxGeometry>
        </mxCell>
        <mxCell id="L3UYxXxdt7HCs2LZCHzP-5" value="&lt;p style=&quot;line-height: 500%;&quot;&gt;&lt;font face=&quot;Georgia&quot;&gt;&lt;span style=&quot;font-size: 13px;&quot;&gt;SQL&lt;/span&gt;&lt;/font&gt;&lt;/p&gt;" style="rounded=1;whiteSpace=wrap;html=1;align=center;spacingTop=-70;fillColor=#b0e3e6;strokeColor=none;" parent="1" vertex="1">
          <mxGeometry x="100" y="450" width="120" height="110" as="geometry" />
        </mxCell>
        <mxCell id="L3UYxXxdt7HCs2LZCHzP-6" value="" style="shape=image;verticalLabelPosition=bottom;labelBackgroundColor=default;verticalAlign=top;aspect=fixed;imageAspect=0;image=https://static-00.iconduck.com/assets.00/sql-database-sql-azure-icon-1955x2048-4pmty46t.png;" parent="1" vertex="1">
          <mxGeometry x="127.34" y="485.61" width="65.31" height="68.39" as="geometry" />
        </mxCell>
        <mxCell id="L3UYxXxdt7HCs2LZCHzP-44" value="" style="edgeStyle=orthogonalEdgeStyle;rounded=0;orthogonalLoop=1;jettySize=auto;html=1;strokeWidth=2;entryX=0;entryY=0.5;entryDx=0;entryDy=0;" parent="1" source="L3UYxXxdt7HCs2LZCHzP-7" edge="1" target="L3UYxXxdt7HCs2LZCHzP-54">
          <mxGeometry relative="1" as="geometry">
            <mxPoint x="460" y="375" as="targetPoint" />
          </mxGeometry>
        </mxCell>
        <mxCell id="L3UYxXxdt7HCs2LZCHzP-46" style="edgeStyle=orthogonalEdgeStyle;rounded=0;orthogonalLoop=1;jettySize=auto;html=1;exitX=1;exitY=0.75;exitDx=0;exitDy=0;entryX=0;entryY=0.75;entryDx=0;entryDy=0;strokeWidth=2;" parent="1" source="L3UYxXxdt7HCs2LZCHzP-7" edge="1" target="L3UYxXxdt7HCs2LZCHzP-54">
          <mxGeometry relative="1" as="geometry">
            <mxPoint x="460" y="467.5000000000002" as="targetPoint" />
          </mxGeometry>
        </mxCell>
        <mxCell id="L3UYxXxdt7HCs2LZCHzP-47" style="edgeStyle=orthogonalEdgeStyle;rounded=0;orthogonalLoop=1;jettySize=auto;html=1;exitX=1;exitY=0.25;exitDx=0;exitDy=0;entryX=0;entryY=0.25;entryDx=0;entryDy=0;strokeWidth=2;" parent="1" source="L3UYxXxdt7HCs2LZCHzP-7" edge="1" target="L3UYxXxdt7HCs2LZCHzP-54">
          <mxGeometry relative="1" as="geometry">
            <mxPoint x="460" y="282.5" as="targetPoint" />
          </mxGeometry>
        </mxCell>
        <mxCell id="L3UYxXxdt7HCs2LZCHzP-7" value="&lt;font style=&quot;font-size: 18px;&quot; face=&quot;Garamond&quot;&gt;Data Lake&lt;/font&gt;" style="rounded=1;whiteSpace=wrap;html=1;spacingTop=-300;fillColor=#b1ddf0;strokeColor=none;" parent="1" vertex="1">
          <mxGeometry x="280" y="190" width="140" height="370" as="geometry" />
        </mxCell>
        <mxCell id="L3UYxXxdt7HCs2LZCHzP-11" value="" style="rounded=1;whiteSpace=wrap;html=1;" parent="1" vertex="1">
          <mxGeometry x="290" y="256" width="120" height="10" as="geometry" />
        </mxCell>
        <mxCell id="L3UYxXxdt7HCs2LZCHzP-13" value="" style="rounded=1;whiteSpace=wrap;html=1;" parent="1" vertex="1">
          <mxGeometry x="290" y="280" width="120" height="10" as="geometry" />
        </mxCell>
        <mxCell id="L3UYxXxdt7HCs2LZCHzP-14" value="" style="rounded=1;whiteSpace=wrap;html=1;" parent="1" vertex="1">
          <mxGeometry x="290" y="301" width="120" height="10" as="geometry" />
        </mxCell>
        <mxCell id="L3UYxXxdt7HCs2LZCHzP-15" value="" style="rounded=1;whiteSpace=wrap;html=1;" parent="1" vertex="1">
          <mxGeometry x="290" y="324" width="120" height="10" as="geometry" />
        </mxCell>
        <mxCell id="L3UYxXxdt7HCs2LZCHzP-16" value="" style="rounded=1;whiteSpace=wrap;html=1;" parent="1" vertex="1">
          <mxGeometry x="290" y="450" width="120" height="10" as="geometry" />
        </mxCell>
        <mxCell id="L3UYxXxdt7HCs2LZCHzP-17" value="" style="rounded=1;whiteSpace=wrap;html=1;" parent="1" vertex="1">
          <mxGeometry x="290" y="474" width="120" height="10" as="geometry" />
        </mxCell>
        <mxCell id="L3UYxXxdt7HCs2LZCHzP-18" value="" style="rounded=1;whiteSpace=wrap;html=1;" parent="1" vertex="1">
          <mxGeometry x="290" y="495" width="120" height="10" as="geometry" />
        </mxCell>
        <mxCell id="L3UYxXxdt7HCs2LZCHzP-19" value="" style="rounded=1;whiteSpace=wrap;html=1;" parent="1" vertex="1">
          <mxGeometry x="290" y="518" width="120" height="10" as="geometry" />
        </mxCell>
        <mxCell id="L3UYxXxdt7HCs2LZCHzP-41" value="" style="shape=image;verticalLabelPosition=bottom;labelBackgroundColor=default;verticalAlign=top;aspect=fixed;imageAspect=0;image=https://cdn-images-1.medium.com/max/914/1*iYJgfYgxDWBcfWjl1twsag.png;" parent="1" vertex="1">
          <mxGeometry x="275" y="353.5" width="150.48" height="79" as="geometry" />
        </mxCell>
        <mxCell id="L3UYxXxdt7HCs2LZCHzP-49" style="edgeStyle=orthogonalEdgeStyle;rounded=0;orthogonalLoop=1;jettySize=auto;html=1;exitX=1;exitY=0.5;exitDx=0;exitDy=0;entryX=-0.003;entryY=0.147;entryDx=0;entryDy=0;entryPerimeter=0;strokeWidth=2;" parent="1" source="L3UYxXxdt7HCs2LZCHzP-1" target="L3UYxXxdt7HCs2LZCHzP-7" edge="1">
          <mxGeometry relative="1" as="geometry" />
        </mxCell>
        <mxCell id="L3UYxXxdt7HCs2LZCHzP-53" value="&lt;font style=&quot;font-size: 18px;&quot; face=&quot;Garamond&quot;&gt;ODS&lt;/font&gt;" style="rounded=1;whiteSpace=wrap;html=1;spacingTop=-300;fillColor=#bac8d3;strokeColor=none;" parent="1" vertex="1">
          <mxGeometry x="678" y="190" width="140" height="370" as="geometry" />
        </mxCell>
        <mxCell id="L3UYxXxdt7HCs2LZCHzP-54" value="&lt;font style=&quot;font-size: 18px;&quot; face=&quot;Garamond&quot;&gt;Data Factory&lt;/font&gt;" style="rounded=1;whiteSpace=wrap;html=1;spacingTop=-300;fillColor=#bac8d3;strokeColor=none;" parent="1" vertex="1">
          <mxGeometry x="468" y="190" width="170" height="370" as="geometry" />
        </mxCell>
        <mxCell id="cUaBks1Qy8qZdUU8rTtj-11" value="" style="shape=offPageConnector;whiteSpace=wrap;html=1;rotation=-90;size=0.13333333333333333;" vertex="1" parent="1">
          <mxGeometry x="508" y="311" width="35" height="75" as="geometry" />
        </mxCell>
        <mxCell id="cUaBks1Qy8qZdUU8rTtj-12" value="" style="strokeWidth=1;html=1;shape=mxgraph.flowchart.stored_data;whiteSpace=wrap;rotation=-180;" vertex="1" parent="1">
          <mxGeometry x="718" y="331" width="80" height="35" as="geometry" />
        </mxCell>
        <mxCell id="cUaBks1Qy8qZdUU8rTtj-13" style="edgeStyle=orthogonalEdgeStyle;rounded=0;orthogonalLoop=1;jettySize=auto;html=1;exitX=0.5;exitY=1;exitDx=0;exitDy=0;entryX=0.93;entryY=0.5;entryDx=0;entryDy=0;entryPerimeter=0;strokeWidth=2;" edge="1" parent="1" source="cUaBks1Qy8qZdUU8rTtj-11" target="cUaBks1Qy8qZdUU8rTtj-12">
          <mxGeometry relative="1" as="geometry" />
        </mxCell>
        <mxCell id="cUaBks1Qy8qZdUU8rTtj-14" value="" style="shape=offPageConnector;whiteSpace=wrap;html=1;rotation=-90;size=0.13333333333333333;" vertex="1" parent="1">
          <mxGeometry x="508" y="366" width="35" height="75" as="geometry" />
        </mxCell>
        <mxCell id="cUaBks1Qy8qZdUU8rTtj-15" value="" style="strokeWidth=1;html=1;shape=mxgraph.flowchart.stored_data;whiteSpace=wrap;rotation=-180;" vertex="1" parent="1">
          <mxGeometry x="718" y="387" width="80" height="35" as="geometry" />
        </mxCell>
        <mxCell id="cUaBks1Qy8qZdUU8rTtj-16" style="edgeStyle=orthogonalEdgeStyle;rounded=0;orthogonalLoop=1;jettySize=auto;html=1;exitX=0.5;exitY=1;exitDx=0;exitDy=0;entryX=0.93;entryY=0.5;entryDx=0;entryDy=0;entryPerimeter=0;strokeWidth=2;" edge="1" parent="1" source="cUaBks1Qy8qZdUU8rTtj-14" target="cUaBks1Qy8qZdUU8rTtj-15">
          <mxGeometry relative="1" as="geometry" />
        </mxCell>
        <mxCell id="cUaBks1Qy8qZdUU8rTtj-20" value="" style="shape=offPageConnector;whiteSpace=wrap;html=1;rotation=-90;size=0.13333333333333333;" vertex="1" parent="1">
          <mxGeometry x="508" y="422" width="35" height="75" as="geometry" />
        </mxCell>
        <mxCell id="cUaBks1Qy8qZdUU8rTtj-21" value="" style="strokeWidth=1;html=1;shape=mxgraph.flowchart.stored_data;whiteSpace=wrap;rotation=-180;" vertex="1" parent="1">
          <mxGeometry x="718" y="442" width="80" height="35" as="geometry" />
        </mxCell>
        <mxCell id="cUaBks1Qy8qZdUU8rTtj-22" style="edgeStyle=orthogonalEdgeStyle;rounded=0;orthogonalLoop=1;jettySize=auto;html=1;exitX=0.5;exitY=1;exitDx=0;exitDy=0;entryX=0.93;entryY=0.5;entryDx=0;entryDy=0;entryPerimeter=0;strokeWidth=2;" edge="1" parent="1" source="cUaBks1Qy8qZdUU8rTtj-20" target="cUaBks1Qy8qZdUU8rTtj-21">
          <mxGeometry relative="1" as="geometry" />
        </mxCell>
        <mxCell id="cUaBks1Qy8qZdUU8rTtj-23" value="" style="shape=offPageConnector;whiteSpace=wrap;html=1;rotation=-90;size=0.13333333333333333;" vertex="1" parent="1">
          <mxGeometry x="508" y="475" width="35" height="75" as="geometry" />
        </mxCell>
        <mxCell id="cUaBks1Qy8qZdUU8rTtj-24" value="" style="strokeWidth=1;html=1;shape=mxgraph.flowchart.stored_data;whiteSpace=wrap;rotation=-180;" vertex="1" parent="1">
          <mxGeometry x="718" y="495" width="80" height="35" as="geometry" />
        </mxCell>
        <mxCell id="cUaBks1Qy8qZdUU8rTtj-25" style="edgeStyle=orthogonalEdgeStyle;rounded=0;orthogonalLoop=1;jettySize=auto;html=1;exitX=0.5;exitY=1;exitDx=0;exitDy=0;entryX=0.93;entryY=0.5;entryDx=0;entryDy=0;entryPerimeter=0;strokeWidth=2;" edge="1" parent="1" source="cUaBks1Qy8qZdUU8rTtj-23" target="cUaBks1Qy8qZdUU8rTtj-24">
          <mxGeometry relative="1" as="geometry" />
        </mxCell>
        <mxCell id="cUaBks1Qy8qZdUU8rTtj-27" value="" style="shape=image;verticalLabelPosition=bottom;labelBackgroundColor=default;verticalAlign=top;aspect=fixed;imageAspect=0;image=https://symbols.getvecta.com/stencil_27/36_data-factory.e36cbf28ed.png;" vertex="1" parent="1">
          <mxGeometry x="521.5" y="249.75" width="63" height="63" as="geometry" />
        </mxCell>
        <mxCell id="cUaBks1Qy8qZdUU8rTtj-28" value="&lt;font face=&quot;Garamond&quot; style=&quot;font-size: 17px;&quot;&gt;Galaxy Schema&lt;/font&gt;" style="text;html=1;strokeColor=none;fillColor=none;align=center;verticalAlign=middle;whiteSpace=wrap;rounded=0;strokeWidth=1;" vertex="1" parent="1">
          <mxGeometry x="718" y="260" width="60" height="30" as="geometry" />
        </mxCell>
        <mxCell id="cUaBks1Qy8qZdUU8rTtj-57" style="edgeStyle=orthogonalEdgeStyle;rounded=0;orthogonalLoop=1;jettySize=auto;html=1;entryX=0.5;entryY=0;entryDx=0;entryDy=0;strokeWidth=2;" edge="1" parent="1" source="cUaBks1Qy8qZdUU8rTtj-29" target="cUaBks1Qy8qZdUU8rTtj-53">
          <mxGeometry relative="1" as="geometry" />
        </mxCell>
        <mxCell id="cUaBks1Qy8qZdUU8rTtj-29" value="&lt;p style=&quot;line-height: 60%;&quot;&gt;&lt;font face=&quot;Garamond&quot;&gt;&lt;span style=&quot;font-size: 18px;&quot;&gt;Synapse&amp;nbsp;&lt;/span&gt;&lt;/font&gt;&lt;/p&gt;&lt;p style=&quot;line-height: 60%;&quot;&gt;&lt;font face=&quot;Garamond&quot;&gt;&lt;span style=&quot;font-size: 18px;&quot;&gt;Warehouse&lt;/span&gt;&lt;/font&gt;&lt;/p&gt;" style="rounded=1;whiteSpace=wrap;html=1;spacingTop=-90;fillColor=#dae8fc;gradientColor=#7ea6e0;strokeColor=#6c8ebf;gradientDirection=radial;" vertex="1" parent="1">
          <mxGeometry x="888" y="190" width="152" height="150" as="geometry" />
        </mxCell>
        <mxCell id="cUaBks1Qy8qZdUU8rTtj-42" value="" style="shape=image;verticalLabelPosition=bottom;labelBackgroundColor=default;verticalAlign=top;aspect=fixed;imageAspect=0;image=https://azure.microsoft.com/svghandler/synapse-analytics/?width=600&amp;height=315;" vertex="1" parent="1">
          <mxGeometry x="896.38" y="256" width="135.24" height="71" as="geometry" />
        </mxCell>
        <mxCell id="cUaBks1Qy8qZdUU8rTtj-44" style="edgeStyle=orthogonalEdgeStyle;rounded=0;orthogonalLoop=1;jettySize=auto;html=1;exitX=0.5;exitY=1;exitDx=0;exitDy=0;" edge="1" parent="1" source="cUaBks1Qy8qZdUU8rTtj-29" target="cUaBks1Qy8qZdUU8rTtj-29">
          <mxGeometry relative="1" as="geometry" />
        </mxCell>
        <mxCell id="cUaBks1Qy8qZdUU8rTtj-46" style="edgeStyle=orthogonalEdgeStyle;rounded=0;orthogonalLoop=1;jettySize=auto;html=1;entryX=-0.023;entryY=0.412;entryDx=0;entryDy=0;entryPerimeter=0;strokeWidth=2;" edge="1" parent="1" source="L3UYxXxdt7HCs2LZCHzP-53" target="cUaBks1Qy8qZdUU8rTtj-42">
          <mxGeometry relative="1" as="geometry" />
        </mxCell>
        <mxCell id="cUaBks1Qy8qZdUU8rTtj-49" value="" style="shape=singleArrow;whiteSpace=wrap;html=1;arrowWidth=0.7714285714285665;arrowSize=0.0598947794415214;fillColor=#49939E;gradientColor=none;strokeColor=#6c8ebf;gradientDirection=west;" vertex="1" parent="1">
          <mxGeometry x="100" y="570" width="766" height="90" as="geometry" />
        </mxCell>
        <mxCell id="cUaBks1Qy8qZdUU8rTtj-50" value="Extract" style="text;html=1;strokeColor=none;fillColor=none;align=center;verticalAlign=middle;whiteSpace=wrap;rounded=0;fontSize=26;fontFamily=Georgia;" vertex="1" parent="1">
          <mxGeometry x="124.69" y="595" width="75.31" height="40" as="geometry" />
        </mxCell>
        <mxCell id="cUaBks1Qy8qZdUU8rTtj-51" value="Load" style="text;html=1;strokeColor=none;fillColor=none;align=center;verticalAlign=middle;whiteSpace=wrap;rounded=0;fontSize=26;fontFamily=Georgia;" vertex="1" parent="1">
          <mxGeometry x="314.93000000000006" y="595" width="75.31" height="40" as="geometry" />
        </mxCell>
        <mxCell id="cUaBks1Qy8qZdUU8rTtj-52" value="Transform" style="text;html=1;strokeColor=none;fillColor=none;align=center;verticalAlign=middle;whiteSpace=wrap;rounded=0;fontSize=26;fontFamily=Georgia;" vertex="1" parent="1">
          <mxGeometry x="622.35" y="595" width="75.31" height="40" as="geometry" />
        </mxCell>
        <mxCell id="cUaBks1Qy8qZdUU8rTtj-53" value="&lt;p style=&quot;line-height: 60%;&quot;&gt;&lt;font face=&quot;Garamond&quot;&gt;&lt;span style=&quot;font-size: 18px;&quot;&gt;Power BI&lt;/span&gt;&lt;/font&gt;&lt;/p&gt;" style="rounded=1;whiteSpace=wrap;html=1;spacingTop=-100;fillColor=#dae8fc;gradientColor=#7ea6e0;strokeColor=#6c8ebf;gradientDirection=radial;" vertex="1" parent="1">
          <mxGeometry x="886.74" y="410" width="153.26" height="150" as="geometry" />
        </mxCell>
        <mxCell id="cUaBks1Qy8qZdUU8rTtj-54" value="" style="shape=image;verticalLabelPosition=bottom;labelBackgroundColor=default;verticalAlign=top;aspect=fixed;imageAspect=0;image=https://1000logos.net/wp-content/uploads/2022/12/Power-BI-Logo.png;" vertex="1" parent="1">
          <mxGeometry x="893.7399999999999" y="460" width="137.88" height="77.55" as="geometry" />
        </mxCell>
        <mxCell id="cUaBks1Qy8qZdUU8rTtj-56" style="edgeStyle=orthogonalEdgeStyle;rounded=0;orthogonalLoop=1;jettySize=auto;html=1;exitX=0.5;exitY=1;exitDx=0;exitDy=0;" edge="1" parent="1" source="cUaBks1Qy8qZdUU8rTtj-29" target="cUaBks1Qy8qZdUU8rTtj-29">
          <mxGeometry relative="1" as="geometry" />
        </mxCell>
        <mxCell id="cUaBks1Qy8qZdUU8rTtj-58" value="&lt;h1&gt;&lt;font face=&quot;Georgia&quot; style=&quot;font-size: 43px;&quot;&gt;Architectural Overview for our Data Flow&lt;/font&gt;&lt;/h1&gt;" style="text;html=1;strokeColor=none;fillColor=none;spacing=5;spacingTop=-20;whiteSpace=wrap;overflow=hidden;rounded=0;fontStyle=1;labelBorderColor=default;" vertex="1" parent="1">
          <mxGeometry x="100" y="60" width="940" height="80" as="geometry" />
        </mxCell>
      </root>
    </mxGraphModel>
  </diagram>
</mxfile>
